<?xml version="1.0" encoding="UTF-8"?>
<!DOCTYPE svg PUBLIC "-//W3C//DTD SVG 1.0//EN" "http://www.w3.org/TR/2001/REC-SVG-20010904/DTD/svg10.dtd">
<!-- Creator: CorelDRAW X7 -->
<svg xmlns="http://www.w3.org/2000/svg" xml:space="preserve" width="54.3082mm" height="53.3518mm" version="1.0" style="shape-rendering:geometricPrecision; text-rendering:geometricPrecision; image-rendering:optimizeQuality; fill-rule:evenodd; clip-rule:evenodd"
viewBox="0 0 2352 2310"
 xmlns:xlink="http://www.w3.org/1999/xlink">
 <defs>
  <style type="text/css">
   <![CDATA[
    .fil1 {fill:#177F30;fill-rule:nonzero}
    .fil0 {fill:#1A1A1F;fill-rule:nonzero}
   ]]>
  </style>
 </defs>
 <g id="Layer_x0020_1">
  <metadata id="CorelCorpID_0Corel-Layer"/>
  <g id="_952593200">
   <path class="fil0" d="M839 830c-6,0 -12,-3 -16,-7 -9,-9 -9,-24 0,-33 19,-18 41,-31 62,-43 5,-3 10,-6 15,-8 49,-30 92,-72 124,-122 7,-10 12,-19 13,-28 1,-6 -1,-12 -4,-13 -2,-2 -9,-4 -29,6 -77,38 -144,95 -199,146 -4,4 -8,7 -10,11 -6,11 -20,15 -31,9 -11,-7 -15,-21 -8,-32 5,-9 12,-16 18,-22 58,-53 128,-112 210,-153 13,-6 46,-22 74,-4 17,11 27,34 24,58 -2,18 -10,32 -19,46 -36,56 -84,103 -140,137 -5,3 -10,6 -15,9 -20,11 -38,22 -53,36 -4,5 -10,7 -16,7z"/>
   <path class="fil1" d="M1181 1176c-27,-32 -71,-51 -115,-49 -10,1 -20,2 -28,7 -14,7 -20,22 -24,37 -18,68 26,138 87,177 79,52 116,26 188,-16 29,-17 57,-40 66,-70 4,-15 4,-31 3,-47 -2,-19 -4,-38 -13,-55 -9,-17 -24,-32 -44,-36 -24,-6 -49,4 -70,16 -19,10 -36,23 -52,37l2 -1z"/>
   <path class="fil0" d="M1281 2310c-11,0 -21,-9 -22,-20l-17 -164c-1,-13 8,-24 20,-25 13,-2 24,8 26,20l16 164c1,12 -8,24 -20,25 -1,0 -2,0 -3,0zm568 -59l0 0c-8,0 -16,-4 -20,-11 -10,-19 -21,-37 -31,-55l-28 -50c-6,-11 -2,-25 9,-32 11,-6 25,-2 31,9l28 50c10,19 21,37 31,55 6,12 2,25 -9,32 -4,2 -8,2 -11,2zm-1025 -42l0 0c-3,0 -6,0 -9,-1 -12,-5 -17,-19 -13,-30l80 -190c5,-11 18,-17 30,-12 12,5 17,19 12,30l-79 189c-4,9 -13,14 -21,14zm-786 -99l0 0c-7,0 -14,-3 -19,-9 -7,-10 -5,-24 5,-32 193,-143 376,-302 544,-473l2 -2c43,-43 86,-88 146,-108 59,-20 121,-12 174,-4 32,6 64,16 94,26 21,6 40,12 60,17l6 2c36,9 112,27 142,8 6,-4 11,-11 13,-19 2,-15 -6,-32 -19,-41 -7,-4 -17,-7 -27,-10 -55,-17 -112,-36 -181,-61 -94,-34 -170,-110 -204,-204 -30,-84 -22,-170 21,-243 30,-52 79,-89 133,-101 50,-11 101,-1 145,29 10,7 20,14 29,22 19,14 37,28 57,37 5,2 9,3 11,3 0,-1 0,-3 0,-6 -4,-50 -25,-88 -61,-114 -53,-37 -140,-46 -227,-23 -12,3 -24,-5 -28,-17 -3,-12 5,-25 17,-28 101,-27 200,-15 264,31 27,18 47,42 60,70 25,-64 100,-103 215,-108 19,-1 39,0 58,2 -21,-14 -42,-29 -63,-44 -30,-21 -61,-45 -78,-80 -20,-40 -14,-97 29,-121 53,-31 113,16 133,32 24,19 49,39 73,59 -5,-14 -8,-28 -11,-43 -9,-43 7,-77 38,-84 17,-4 44,0 69,43 17,30 34,60 51,90 10,-27 34,-52 65,-54 45,-4 81,32 99,98 21,71 38,146 53,231 2,11 3,22 5,32 10,60 20,123 42,179 37,98 110,179 176,246 58,60 124,120 194,177 10,8 11,22 3,32 -8,10 -22,11 -32,3 -72,-58 -138,-119 -198,-179 -69,-71 -145,-157 -186,-262 -23,-61 -34,-126 -44,-189 -2,-10 -3,-20 -5,-31 -14,-83 -31,-157 -52,-226 -9,-33 -27,-68 -51,-66 -14,2 -26,19 -30,35 -3,20 2,42 9,67 4,11 -2,23 -13,27 -11,5 -24,0 -29,-10 -31,-60 -63,-119 -97,-177 -11,-19 -18,-21 -19,-21 -3,0 -7,13 -3,30 9,47 27,91 55,131 7,9 5,22 -3,30 -9,8 -22,8 -31,0 -51,-46 -103,-90 -157,-132 -36,-29 -64,-38 -81,-28 -19,10 -21,40 -11,61 12,25 37,44 64,62 30,22 60,43 90,65 28,20 56,40 85,60 9,7 12,20 6,30 -6,10 -18,14 -29,10 -68,-30 -122,-42 -172,-39 -62,3 -168,20 -179,99 -1,12 0,21 3,28 2,6 7,10 11,10 7,0 15,-6 24,-11 0,0 1,-1 1,-1 74,-46 189,-85 269,-47 91,45 118,151 112,235 -12,167 -166,292 -314,343l-10 3c-19,6 -36,11 -48,22 -10,9 -15,45 -9,52 6,7 23,7 36,6 37,-2 76,-9 117,-15 96,-15 194,-31 284,-8 102,26 186,93 270,166 115,100 215,218 323,386 7,10 4,24 -6,31 -11,7 -25,4 -32,-6 -106,-164 -203,-280 -315,-376 -80,-69 -159,-133 -251,-157 -81,-21 -175,-6 -265,9 -43,7 -83,13 -122,16 -15,1 -51,3 -73,-21 -1,-1 -2,-3 -3,-4 -6,6 -12,11 -18,16 -47,30 -129,9 -178,-3l-6 -1c-22,-6 -43,-12 -63,-19 -30,-9 -58,-18 -88,-23 -47,-8 -102,-15 -151,1 -50,17 -90,58 -128,97l-2 2c-170,172 -355,333 -549,478 -5,3 -9,4 -14,4zm930 -1212l0 0c-10,0 -20,1 -30,3 -42,9 -80,38 -104,79 -36,61 -42,134 -16,204 28,80 96,148 175,177 69,25 125,44 179,60 12,4 26,8 39,16 10,7 19,16 26,26 4,-7 8,-14 14,-18 19,-17 43,-25 63,-32l10 -3c133,-45 273,-157 283,-302 5,-66 -15,-156 -86,-190 -59,-29 -156,1 -225,44 -13,9 -30,20 -50,19 -13,-1 -24,-6 -34,-13 -1,3 -3,6 -5,9 -14,18 -38,21 -66,9 -25,-11 -46,-27 -67,-43 -9,-7 -18,-14 -27,-20 -25,-17 -51,-25 -79,-25zm-945 699l0 0c-7,0 -14,-3 -18,-9 -8,-10 -6,-24 4,-32 101,-77 205,-157 292,-252 96,-106 155,-217 176,-329 11,-57 12,-118 13,-176 2,-85 3,-173 34,-256 14,-35 39,-54 65,-47 22,5 31,25 37,36 14,31 26,64 36,97 13,-33 28,-64 45,-95 11,-22 25,-46 50,-61 30,-19 70,-15 91,9 18,21 18,50 15,72 -9,65 -32,128 -67,183 -7,10 -21,14 -32,7 -10,-7 -14,-21 -7,-32 32,-49 53,-106 60,-164 2,-12 3,-28 -4,-36 -6,-8 -22,-6 -32,0 -15,9 -25,27 -34,43 -28,52 -51,107 -69,162 -4,10 -13,17 -24,16 -10,-1 -19,-9 -21,-20 -8,-56 -25,-110 -49,-161 -2,-6 -4,-9 -6,-11 -3,2 -7,8 -11,18 -28,75 -29,156 -31,241 -1,60 -3,122 -14,183 -22,121 -85,239 -187,351 -90,99 -196,180 -298,258 -4,3 -9,5 -14,5zm1828 -1342l0 0c-12,0 -23,-10 -23,-23 0,-5 1,-9 4,-13 0,-10 6,-19 15,-23 9,-3 18,-3 25,1 8,3 13,9 16,17 4,13 -2,27 -14,34 -8,6 -17,6 -22,7 -1,0 -1,0 -1,0zm25 -44l0 0c0,0 0,0 0,0 0,0 0,0 0,0zm-1397 41l0 0c-8,0 -15,-4 -19,-11l-127 -206c-6,-11 -3,-25 8,-32 11,-6 25,-3 32,8l126 206c6,11 3,25 -8,31 -4,3 -8,4 -12,4zm774 -77l0 0c-7,0 -14,-3 -19,-9 -14,-19 -31,-34 -51,-44 -11,-6 -15,-20 -9,-31 6,-11 19,-16 31,-10 25,14 48,33 66,58 8,10 5,24 -5,32 -4,3 -9,4 -13,4zm-333 -25l0 0c-9,0 -17,-5 -21,-14 -5,-12 -10,-24 -15,-36 -4,-11 -9,-23 -14,-35 -5,-12 0,-25 12,-30 12,-5 25,1 30,12 5,12 10,24 15,36 5,12 9,24 14,36 5,11 0,25 -12,30 -3,1 -6,1 -9,1z"/>
   <path class="fil0" d="M1180 1352c-27,0 -56,-10 -92,-33 -64,-42 -118,-120 -96,-202 4,-16 13,-39 35,-51 10,-6 23,-9 37,-10 44,-2 87,13 118,41 12,-10 25,-18 38,-25 21,-12 53,-26 86,-19 25,6 46,23 59,49 11,20 14,42 15,63 2,17 2,36 -3,55 -9,31 -35,60 -76,84l-8 5c-41,23 -74,43 -113,43zm-107 -250l0 0c-2,0 -4,0 -6,0 -8,0 -14,2 -18,4 -5,3 -9,10 -13,23 -16,59 27,119 77,152 64,42 91,26 156,-12l9 -5c30,-18 49,-37 55,-57 3,-12 3,-25 2,-38 -2,-17 -4,-33 -10,-46 -4,-7 -13,-21 -29,-25 -14,-3 -31,1 -54,14 -17,9 -33,21 -47,34 -10,9 -24,8 -33,-1 -2,-3 -4,-6 -5,-9 -21,-22 -52,-34 -84,-34zm138 -922l0 0c-3,0 -7,0 -10,-2 -11,-5 -16,-18 -11,-30 10,-24 28,-44 51,-57 11,-6 25,-3 31,8 6,11 2,25 -8,32 -15,8 -26,21 -32,35 -4,9 -13,14 -21,14z"/>
  </g>
 </g>
</svg>
