<?xml version="1.0" encoding="UTF-8"?>
<!DOCTYPE svg PUBLIC "-//W3C//DTD SVG 1.0//EN" "http://www.w3.org/TR/2001/REC-SVG-20010904/DTD/svg10.dtd">
<!-- Creator: CorelDRAW X7 -->
<svg xmlns="http://www.w3.org/2000/svg" xml:space="preserve" width="78.3116mm" height="62.579mm" version="1.0" style="shape-rendering:geometricPrecision; text-rendering:geometricPrecision; image-rendering:optimizeQuality; fill-rule:evenodd; clip-rule:evenodd"
viewBox="0 0 3463 2768"
 xmlns:xlink="http://www.w3.org/1999/xlink">
 <defs>
  <style type="text/css">
   <![CDATA[
    .fil1 {fill:#177F30;fill-rule:nonzero}
    .fil0 {fill:#1A1A1F;fill-rule:nonzero}
   ]]>
  </style>
 </defs>
 <g id="Layer_x0020_1">
  <metadata id="CorelCorpID_0Corel-Layer"/>
  <g id="_915348736">
   <path class="fil0" d="M648 2614c13,11 18,31 5,47 -10,13 -30,17 -46,5 -13,-10 -17,-30 -5,-46 13,-11 31,-13 46,-6zm-247 -801l0 0c18,15 23,40 9,58 -14,18 -40,23 -58,9 -18,-14 -23,-39 -9,-57 15,-18 40,-24 58,-10l0 0zm718 97l0 0c-6,-2 -9,-9 -6,-15 2,-5 8,-8 14,-6 6,2 9,8 7,14 -3,6 -9,9 -15,7l0 0zm2048 156l0 0c0,34 32,62 70,62 39,0 71,-28 71,-62 0,-35 -32,-63 -71,-63 -38,0 -70,29 -70,63zm-462 -1816l0 0c1,6 7,10 13,10 5,-1 10,-7 10,-12 -1,-6 -6,-11 -12,-10 -7,0 -11,6 -11,12z"/>
   <path class="fil0" d="M2834 2666c-26,0 -54,-1 -84,-6 0,0 0,0 0,0 0,0 0,0 0,0 0,0 0,0 0,0 -2,0 -4,-1 -5,-1 -18,-8 -38,-27 -39,-76 -1,-4 -2,-19 7,-33 13,-18 37,-24 58,-15 5,-10 12,-20 21,-30 11,-13 28,-31 52,-39 28,-10 58,-3 75,18 9,12 12,26 13,39 5,0 10,1 15,2 18,6 33,18 41,34 9,15 10,34 4,52 -6,19 -20,33 -36,41 -1,0 -2,0 -3,1 -20,6 -64,13 -119,13zm-69 -51l0 0c79,11 146,1 173,-7 4,-2 8,-7 10,-12 1,-6 1,-11 -1,-15 -2,-5 -7,-9 -14,-11 -6,-1 -11,-1 -16,2 -8,4 -18,3 -25,-2 -7,-5 -11,-14 -9,-23 2,-13 4,-27 -1,-34 -4,-5 -14,-6 -22,-3 -13,5 -25,17 -32,25 -14,16 -20,29 -18,37 3,11 -2,22 -12,26 -9,5 -21,3 -28,-5 -6,-7 -11,-12 -17,-15 0,0 0,0 -1,0 0,1 0,2 0,3 1,12 2,22 5,28 3,1 6,3 8,6zm-1249 -2404l0 0c-6,0 -12,-2 -17,-6 -36,-35 -25,-82 -6,-103 12,-14 34,-17 65,-9 5,-33 21,-67 53,-83 26,-14 59,-13 84,2 14,9 26,22 32,37 1,0 2,0 3,0 18,-2 34,7 44,24 17,30 7,52 3,62 0,1 0,2 -1,2 -2,13 -14,21 -27,18 -13,-3 -21,-16 -18,-28 1,-4 2,-8 3,-10 3,-7 5,-11 -1,-21 0,0 0,0 0,0 -1,0 -1,0 -2,1 -5,8 -15,13 -25,11 -11,-3 -19,-13 -19,-25 1,-12 -6,-25 -17,-31 -10,-7 -26,-7 -37,-1 -24,12 -31,46 -28,71 1,9 -3,17 -9,22 -7,5 -15,6 -23,3 -22,-9 -39,-12 -47,-12 -3,6 -9,21 6,36 9,9 10,24 1,33 -5,5 -11,7 -17,7zm217 -118l0 0c0,0 0,0 0,0 0,0 0,0 0,0z"/>
   <path class="fil1" d="M475 1274c0,0 731,277 880,292 181,20 268,-125 312,-458l0 -108c0,-68 -97,-205 -166,-224 -68,-20 -342,-127 -440,-156 -97,-29 -359,-108 -420,-39 -61,68 -166,693 -166,693z"/>
   <path class="fil0" d="M1393 1580c-33,0 -66,-6 -97,-11 -298,-59 -585,-161 -856,-306 -8,-4 -13,-13 -13,-22 13,-220 61,-436 143,-641 13,-31 28,-63 58,-80 34,-19 75,-14 107,-7 68,12 137,24 206,36 64,11 129,22 192,33 13,2 22,14 19,27 -2,13 -14,21 -27,19 -63,-11 -127,-22 -192,-33 -69,-12 -138,-24 -207,-36 -23,-5 -54,-10 -74,2 -18,10 -28,32 -39,56 -78,196 -124,402 -138,612 263,139 542,237 830,294 54,10 116,19 165,-6 62,-33 85,-114 104,-193l67 -302c9,-44 19,-89 5,-128 -14,-39 -48,-68 -80,-91 -103,-76 -224,-128 -349,-149 -13,-2 -22,-14 -19,-27 2,-13 14,-21 27,-19 132,22 260,77 369,157 37,28 77,62 96,112 18,53 7,107 -3,155l-68 302c-21,90 -47,182 -127,224 -31,16 -65,22 -99,22z"/>
   <path class="fil0" d="M1807 1613c-23,0 -46,-9 -66,-25 -12,-10 -20,-22 -26,-34 -32,19 -73,23 -107,9 -52,-22 -82,-86 -66,-139 4,-12 17,-19 29,-16 13,4 20,17 16,30 -9,30 10,69 40,82 29,12 70,-1 86,-28 6,-10 19,-14 30,-9 11,4 16,17 13,28 -7,20 10,36 15,41 14,11 36,19 53,10 20,-10 27,-30 29,-41 1,-9 1,-17 0,-25 -9,-14 -17,-30 -22,-47 -3,-10 2,-21 11,-27 10,-5 22,-3 29,5 13,14 22,31 26,50 34,44 94,68 148,55 28,-8 56,-32 51,-55 -3,-12 -15,-23 -37,-36 -42,-24 -89,-42 -134,-60 -37,-14 -76,-29 -113,-48 -103,-53 -169,-128 -184,-211 -2,-13 6,-25 19,-27 13,-3 25,6 27,19 17,92 107,150 159,177 35,18 73,32 109,47 47,18 95,37 140,63 23,13 51,32 59,65 12,52 -33,97 -84,111 -57,14 -117,-1 -161,-36 -8,28 -26,50 -50,62 -12,7 -25,10 -39,10zm-853 -3l0 0c-8,0 -16,-5 -20,-13 -5,-9 -15,-48 -20,-64 -3,-13 4,-26 17,-29 12,-3 25,4 28,17 7,25 15,51 17,56 5,11 0,25 -12,30 -3,2 -6,3 -10,3zm-173 -23l0 0c-3,0 -7,-1 -10,-3 -12,-5 -17,-19 -11,-31 2,-4 7,-18 18,-65l1 -3c3,-13 15,-21 28,-18 12,3 20,16 17,28l-1 4c-9,40 -15,63 -21,75 -4,8 -12,13 -21,13zm667 -38l0 0c-9,0 -17,-5 -21,-14 -67,-159 -158,-308 -272,-443 0,0 -1,-1 -1,-2 -66,7 -135,5 -200,-10 -13,-3 -21,-16 -18,-28 3,-13 16,-21 29,-18 138,34 299,-4 394,-46 38,-16 76,-35 112,-53 57,-28 117,-58 179,-80 12,-5 25,2 30,14 4,12 -2,25 -14,30 -60,21 -118,50 -174,78 -37,18 -75,37 -114,54 -45,20 -105,39 -170,51 108,133 196,279 262,435 5,12 -1,26 -13,31 -2,1 -6,1 -9,1zm-998 -293l0 0c-7,0 -15,-3 -19,-10 -7,-11 -4,-26 7,-33 73,-46 355,-139 401,-151 13,-3 25,4 29,17 3,12 -5,25 -17,28 -53,14 -322,104 -388,146 -4,2 -8,3 -13,3zm-92 -78l0 0c-2,0 -5,0 -7,0 -35,-2 -66,-17 -86,-43 -6,-8 -7,-20 0,-28 0,0 0,0 0,-1 -24,4 -47,3 -68,-2 -55,-12 -97,-54 -103,-101 -4,-28 7,-59 29,-81 1,0 2,-1 3,-2 -49,-30 -84,-80 -91,-138 -1,-9 -2,-24 5,-40 6,-11 14,-19 26,-22 30,-9 69,15 128,52 79,49 188,117 286,102 13,-1 25,7 26,20 2,13 -6,25 -19,27 -115,17 -232,-56 -318,-109 -30,-20 -72,-46 -87,-47 -1,3 -1,7 0,12 7,58 55,109 113,121 12,2 21,14 18,27 -2,12 -13,21 -26,19 -14,-2 -26,6 -31,12 -12,11 -18,27 -16,41 4,31 37,55 67,62 31,7 67,2 110,-15 10,-4 21,-1 27,8 6,8 6,19 0,28 -7,9 -14,18 -21,28 -3,3 -6,7 -8,11 10,7 24,11 39,12 21,1 42,-6 55,-19 9,-9 23,-10 33,-1 9,9 9,24 0,33 -21,22 -51,34 -84,34zm427 -159l0 0c-11,0 -22,-3 -33,-7 -36,-16 -54,-60 -41,-98 4,-12 17,-19 29,-15 12,5 19,18 15,30 -5,15 3,34 16,40 15,7 35,1 43,-11 7,-11 21,-15 32,-8 11,7 14,21 7,32 -14,23 -40,37 -68,37zm140 -120l0 0c-11,0 -21,-8 -23,-20 -1,-5 -6,-10 -11,-12 -6,-3 -14,-3 -18,-1 -11,7 -25,4 -32,-7 -7,-11 -3,-26 8,-33 18,-11 41,-11 62,-1 20,9 34,27 37,47 2,13 -7,25 -19,27 -2,0 -3,0 -4,0zm-162 -55l0 0c-11,0 -21,-8 -23,-20 0,-5 -6,-9 -11,-12 -6,-3 -13,-3 -17,0 -11,6 -26,3 -33,-8 -6,-11 -3,-25 8,-32 18,-11 41,-12 62,-2 21,10 35,27 38,48 2,12 -7,24 -20,26 -1,0 -2,0 -4,0zm-44 -133l0 0c-10,0 -20,-7 -23,-17 -4,-17 -17,-45 -30,-72 -14,-29 -27,-58 -32,-78 -4,-12 3,-25 16,-29 12,-3 25,4 29,16 4,17 17,45 30,72 14,29 27,58 32,78 4,12 -3,25 -16,29 -2,0 -4,1 -6,1z"/>
   <path class="fil0" d="M893 1516c-1,-13 -12,-23 -25,-22 -13,0 -23,11 -22,24l47 -2 0 0zm1268 785l0 0c13,0 23,-11 23,-24 -1,-13 -12,-23 -25,-23 0,0 0,0 0,0l2 47zm-1315 -783l0 0c6,168 23,273 58,351 35,79 89,128 163,185l28 -37c-72,-56 -118,-99 -149,-167 -31,-69 -47,-167 -53,-334l-47 2zm221 536l0 0c78,60 216,104 350,103 133,0 269,-44 332,-170l-41 -21c-52,103 -166,144 -291,145 -126,0 -253,-42 -322,-94l-28 37zm682 -67l0 0c29,-58 42,-102 40,-132 0,-16 -5,-31 -16,-42 -11,-11 -26,-15 -39,-13 -26,2 -51,19 -71,42 -22,27 -36,60 -40,95l47 5c3,-26 13,-50 29,-70 15,-18 31,-25 39,-26 0,0 1,0 2,0 0,0 0,0 0,0l0 0c0,0 0,0 0,1 1,0 1,1 1,1 1,2 1,5 2,9 1,18 -7,53 -35,109l41 21zm-126 -50l0 0c-7,70 8,170 87,248 79,78 218,131 451,116l-2 -47c-226,14 -350,-37 -416,-102 -67,-66 -79,-149 -73,-210l-47 -5z"/>
   <path class="fil1" d="M3179 337c-8,-35 -15,-69 -24,-104 -3,-15 -4,-35 -17,-46 -16,-16 -49,-14 -71,-14 -68,1 -137,22 -203,35 -37,8 -74,15 -111,23 -19,4 -36,6 -46,24 -1,3 -2,7 0,11 -2,3 -3,6 -2,9 12,69 30,138 56,204 7,17 9,29 27,36 22,8 57,-2 80,-5 72,-8 143,-19 214,-29 40,-6 106,0 111,-54 2,-30 -9,-62 -14,-90z"/>
   <path class="fil0" d="M2774 532c-8,0 -16,-1 -23,-6 -14,-9 -19,-24 -20,-28 -7,-19 -10,-37 -14,-55 -3,-15 -6,-30 -10,-44 -13,-40 -28,-92 -35,-145 -2,-8 -3,-20 2,-33 0,0 0,-1 0,-1 7,-15 15,-21 147,-48 12,-2 25,-5 28,-6 13,-3 26,4 29,16 4,13 -3,26 -15,29 -4,1 -13,3 -33,7 -26,6 -89,18 -113,26 1,1 1,2 1,3 7,50 21,98 33,138 6,16 9,33 12,49 4,17 7,33 12,49 0,1 1,2 1,2 1,0 1,0 2,0 1,0 1,0 2,0 120,-9 235,-24 343,-45 21,-4 41,-9 49,-21 5,-10 4,-24 2,-39 -9,-71 -25,-138 -47,-200 -4,-10 -7,-15 -39,-10 -28,5 -57,9 -85,13 -29,5 -58,9 -86,14 -13,2 -25,-7 -27,-20 -2,-12 7,-24 19,-26 29,-5 58,-9 87,-14 28,-4 57,-9 85,-13 21,-4 71,-12 90,40 23,66 40,136 49,210 3,22 5,46 -8,69 -20,32 -59,39 -80,43 -110,21 -227,36 -348,45 -3,1 -6,1 -10,1zm3 -45l0 0c0,0 0,0 0,0 0,0 0,0 0,0z"/>
   <g>
    <path class="fil0" d="M2822 465c-2,0 -5,0 -8,-1 -12,-5 -18,-18 -14,-30 6,-15 15,-26 24,-35 17,-20 34,-41 52,-62 -38,-16 -80,-37 -115,-59 -11,-7 -14,-22 -7,-33 7,-10 22,-14 33,-7 46,30 107,57 150,75 1,0 5,2 10,5 3,1 7,3 11,5 3,-3 7,-6 8,-7 2,-2 4,-3 5,-4 31,-24 50,-52 71,-84 7,-11 15,-22 23,-34 7,-11 22,-13 33,-6 10,8 13,22 5,33 -8,11 -15,22 -22,33 -23,34 -44,66 -81,95 -1,0 -2,1 -3,2 -15,13 -23,19 -33,21 -10,1 -18,-3 -38,-13 -2,-1 -4,-2 -5,-2l-2 2c-20,23 -40,47 -60,71 -7,6 -12,13 -15,20 -3,9 -12,15 -22,15zm131 -138l0 0 0 0z"/>
   </g>
   <path class="fil1" d="M3010 311c35,24 67,52 95,83l-95 -83 0 0z"/>
   <path class="fil0" d="M3105 418c-6,0 -13,-3 -17,-8 -28,-30 -58,-56 -91,-80 -11,-7 -13,-22 -6,-32 7,-11 22,-13 33,-6 35,25 69,54 98,87 9,9 8,24 -1,33 -5,4 -10,6 -16,6z"/>
   <path class="fil0" d="M2589 533c-10,0 -20,-3 -29,-9 -14,-9 -20,-24 -22,-39 -10,6 -21,11 -33,13 -15,3 -30,-5 -38,-19 -10,-17 -17,-55 43,-126 58,-69 146,-84 185,-82 13,1 23,12 22,25 -1,13 -12,23 -25,22 -24,-1 -98,8 -146,65 -27,33 -36,54 -38,65 9,-5 18,-14 26,-22 5,-6 10,-11 15,-14 7,-7 18,-8 27,-2 9,5 13,15 10,25 -5,21 -4,45 0,50 2,2 3,2 3,2 2,-1 7,-6 11,-18 9,-27 13,-57 13,-66 1,-11 9,-19 20,-21 11,-2 21,4 25,14 0,0 9,19 26,19 0,0 1,0 1,0 14,0 18,-6 18,-6 5,-12 18,-18 30,-13 12,4 18,18 13,30 -7,18 -29,37 -63,36 -12,0 -22,-3 -30,-8 -3,10 -5,20 -8,29 -8,25 -22,42 -40,48 -5,2 -10,2 -16,2zm629 -139l0 0c-9,0 -17,-3 -25,-7 -11,-5 -17,-19 -12,-31 6,-12 19,-17 31,-12 0,0 1,1 1,1 2,1 4,2 5,2 0,0 3,-1 10,-7 19,-17 6,-44 6,-44 -5,-10 -2,-22 7,-29 9,-7 21,-7 29,1 6,4 12,11 19,17 26,26 51,48 67,39 2,-5 -5,-26 -20,-47 -6,-8 -7,-19 -1,-27 5,-8 15,-12 24,-10 25,5 50,5 57,1 1,-1 1,-1 1,-1 -1,-4 -17,-21 -85,-34 -52,-9 -100,4 -143,39 -10,8 -24,6 -32,-4 -9,-10 -7,-24 3,-32 52,-44 115,-60 180,-49 69,13 108,33 120,62 6,16 4,33 -6,47 -12,17 -35,22 -58,22 5,14 9,29 6,43 -3,13 -11,24 -23,31 -36,21 -70,1 -98,-23 -4,12 -11,24 -22,33 -15,14 -29,19 -41,19z"/>
   <path class="fil0" d="M0 2761c2,2 4,4 6,7l-6 0 0 -7zm2091 -368l0 0c-52,0 -97,-4 -127,-8 -12,-2 -21,-14 -20,-27 2,-13 14,-21 27,-20 73,11 241,18 358,-29 12,-5 26,1 30,13 5,12 -1,26 -13,31 -77,30 -174,40 -255,40zm1183 -1389l0 0c-10,0 -20,-7 -23,-17 -11,-38 -12,-43 -14,-45 -3,-5 -7,-11 -21,-52 -4,-12 2,-25 14,-30 12,-4 26,2 30,15 13,36 16,41 17,43 5,7 6,11 19,56 4,12 -3,25 -16,29 -2,1 -4,1 -6,1zm-118 -104l0 0c-10,0 -20,-7 -22,-17 -16,-56 -20,-69 -25,-82 -4,-13 -9,-27 -25,-84 -3,-13 4,-26 17,-29 12,-3 25,4 28,17 16,55 20,68 25,81 4,13 9,27 25,84 3,13 -4,26 -17,29 -2,0 -4,1 -6,1z"/>
  </g>
 </g>
</svg>
