<?xml version="1.0" encoding="UTF-8"?>
<!DOCTYPE svg PUBLIC "-//W3C//DTD SVG 1.0//EN" "http://www.w3.org/TR/2001/REC-SVG-20010904/DTD/svg10.dtd">
<!-- Creator: CorelDRAW X7 -->
<svg xmlns="http://www.w3.org/2000/svg" xml:space="preserve" width="35.7576mm" height="63.8528mm" version="1.0" style="shape-rendering:geometricPrecision; text-rendering:geometricPrecision; image-rendering:optimizeQuality; fill-rule:evenodd; clip-rule:evenodd"
viewBox="0 0 2059 3676"
 xmlns:xlink="http://www.w3.org/1999/xlink">
 <defs>
  <style type="text/css">
   <![CDATA[
    .fil0 {fill:#177F30;fill-rule:nonzero}
    .fil2 {fill:#1A1A1F;fill-rule:nonzero}
    .fil1 {fill:white;fill-rule:nonzero}
   ]]>
  </style>
 </defs>
 <g id="Layer_x0020_1">
  <metadata id="CorelCorpID_0Corel-Layer"/>
  <g id="_949347152">
   <path class="fil0" d="M593 724c32,-75 79,-281 171,-321 92,-40 767,206 833,237 81,38 56,219 50,266l0 1c-5,36 -83,238 -121,335 -66,-15 -211,-50 -261,-70 -62,-24 -208,39 -281,53 -73,14 -51,49 -40,90 11,41 336,207 359,231 23,25 33,102 25,132 -9,30 -344,772 -372,777 -28,5 -716,-197 -813,-257 -98,-61 -98,-170 -39,-209 39,-25 109,-46 97,-90 -11,-45 -6,-153 18,-179 19,-21 75,-80 83,-206 19,-30 65,-24 106,-98 41,-74 17,-205 0,-220 51,-132 158,-413 185,-472z"/>
   <path class="fil1" d="M726 715c36,-92 57,-156 107,-176 50,-20 162,57 232,84 88,35 357,123 440,151 83,29 40,118 15,175 -25,56 -101,264 -113,264 -11,0 -343,-20 -429,0 -87,20 -50,132 0,172 39,32 216,122 299,163 -16,48 -31,97 -46,146 -10,35 -177,429 -216,502 -38,73 -97,-4 -219,-42 -122,-38 -499,-192 -533,-289 -35,-98 73,-223 97,-283 25,-59 126,-289 150,-338 24,-48 189,-459 216,-529l0 0z"/>
   <path class="fil2" d="M1237 1010c-2,0 -5,0 -7,-1 -10,-2 -88,-23 -137,-38 -16,-5 -26,-22 -21,-38 5,-16 22,-25 38,-20 49,14 125,35 134,37 17,4 27,21 23,37 -4,14 -16,23 -30,23zm38 -52l0 0c-4,0 -8,-1 -12,-2 -23,-10 -109,-43 -186,-72 -100,-39 -142,-56 -149,-59 -15,-7 -21,-25 -14,-40 7,-15 25,-22 40,-15 8,4 81,32 145,57 81,31 164,63 187,73 16,6 23,24 17,39 -5,12 -16,19 -28,19zm-240 -8l0 0c-3,0 -7,0 -10,-2 -12,-4 -85,-33 -132,-53 -16,-7 -23,-25 -16,-40 6,-15 24,-23 40,-16 45,19 118,48 129,52 16,6 24,24 18,39 -5,13 -16,20 -29,20z"/>
   <path class="fil2" d="M964 3676c-14,0 -27,-9 -30,-24 -23,-107 -40,-179 -51,-227 -24,-107 -24,-107 -12,-122 2,-3 7,-8 14,-10 22,-29 63,-57 117,-84 -15,-2 -27,-16 -26,-33 2,-24 4,-50 -41,-180 -23,-67 -78,-152 -136,-242 -77,-120 -156,-244 -183,-357 -4,-17 6,-33 22,-37 16,-4 33,6 37,22 24,104 101,223 176,339 60,93 116,181 142,255 45,132 47,167 44,205 -1,5 -2,9 -4,13 264,-121 764,-213 858,-170 20,10 34,14 45,18 47,14 51,28 72,104 10,34 25,85 49,161 5,16 -3,33 -19,38 -16,5 -34,-3 -39,-19 -25,-77 -39,-129 -49,-164 -9,-30 -15,-53 -19,-58 -1,-1 -8,-3 -13,-4 -11,-4 -29,-9 -53,-20 -39,-18 -230,0 -472,61 -240,60 -426,137 -462,192 -1,2 -3,4 -4,5 3,15 8,40 16,73 11,48 27,120 51,228 3,17 -7,33 -24,37 -2,0 -4,0 -6,0zm-288 -1409l0 0c-3,0 -5,0 -7,0 -59,-14 -229,-73 -281,-116 -13,-11 -15,-30 -4,-43 11,-13 30,-15 43,-4 37,31 189,88 256,103 16,4 26,20 22,37 -3,14 -15,23 -29,23zm301 -21l0 0c-12,0 -25,-2 -41,-6 -30,-7 -103,-40 -195,-81 -45,-20 -93,-41 -141,-62 -102,-44 -191,-77 -244,-97 -21,-8 -38,-14 -48,-18 -19,-8 -103,-66 -82,-128 12,-38 30,-83 43,-113 3,-8 14,-31 29,-65 60,-131 200,-438 240,-557 31,-90 101,-259 152,-382 30,-72 61,-146 64,-157 0,-2 1,-2 1,-4 12,-37 30,-60 54,-71 36,-16 73,1 100,13 154,68 458,170 519,188 28,9 171,55 167,130 -2,23 -28,94 -88,244 -18,44 -34,85 -38,97 -5,16 -22,25 -38,20 -16,-5 -25,-22 -20,-38 5,-15 20,-53 39,-101 29,-72 81,-205 84,-226 -3,-11 -47,-45 -124,-68 -51,-15 -361,-117 -525,-190 -15,-7 -40,-18 -51,-13 -7,3 -15,15 -21,33 -3,15 -19,52 -66,167 -51,122 -121,290 -151,378 -41,122 -182,430 -242,562 -15,33 -26,56 -29,64 -13,29 -30,72 -42,108 -3,9 31,44 49,53 9,4 25,10 45,17 54,20 144,54 247,98 48,21 97,43 142,63 82,36 160,71 185,77 39,10 41,5 57,-29l2 -6c3,-7 10,-22 20,-42 36,-74 130,-270 138,-317 11,-65 46,-162 64,-205 6,-15 24,-23 39,-16 16,6 23,24 17,39 -16,40 -50,132 -60,192 -8,49 -74,189 -143,333 -9,20 -16,35 -20,42l-2 5c-13,30 -31,69 -86,69zm564 -1005l0 0c-3,0 -5,0 -7,-1 -16,-3 -27,-19 -23,-35 4,-20 56,-164 108,-290 52,-124 3,-184 -39,-218 -18,-16 -136,-60 -239,-98 -134,-50 -285,-107 -373,-153 -142,-75 -216,8 -247,64 -4,8 -35,80 -47,108 -6,15 -24,23 -39,16 -16,-6 -23,-24 -17,-40 6,-14 43,-102 50,-114 54,-97 169,-172 328,-88 85,45 234,100 366,149 148,56 232,88 258,109 86,72 105,169 56,289 -55,132 -102,264 -106,278 -3,14 -16,24 -29,24zm-1098 -95l0 0c-4,0 -9,-1 -13,-3 -15,-8 -21,-26 -14,-41 12,-24 103,-249 168,-417 6,-15 23,-23 39,-17 16,6 23,24 17,39 -62,161 -155,395 -169,422 -6,11 -16,17 -28,17z"/>
   <path class="fil2" d="M28 2976c0,44 36,81 81,81 45,0 81,-37 81,-81 0,-45 -36,-82 -81,-82 -45,0 -81,38 -81,82zm304 -61l0 0c0,22 19,40 41,40 22,0 41,-18 41,-40 0,-23 -19,-41 -41,-41 -22,0 -41,19 -41,41z"/>
   <path class="fil2" d="M1671 3013c-14,0 -26,-9 -30,-22 -1,-5 -9,-18 -16,-30 -44,-76 -137,-234 -28,-475 125,-273 167,-451 133,-558 -11,-34 -24,-93 -39,-161 -32,-146 -91,-417 -148,-453 -50,-32 -349,-87 -523,-54 -12,2 -33,15 -36,30 -4,16 15,32 26,40 25,19 68,43 113,69 142,81 236,138 243,196 9,79 -252,802 -333,870 -19,16 -58,49 -463,-90 -191,-65 -393,-146 -419,-164 -37,-25 -83,-87 -90,-134 -4,-26 5,-42 12,-51 11,-13 30,-15 43,-4 13,10 15,29 4,42 -3,14 31,73 65,97 57,36 737,290 811,256 61,-51 313,-745 309,-815 -3,-32 -144,-112 -212,-150 -47,-27 -92,-52 -119,-72 -55,-41 -55,-82 -50,-103 10,-42 51,-71 84,-77 177,-33 497,17 568,62 72,46 120,242 175,492 15,67 27,124 37,155 39,125 -3,311 -135,603 -96,211 -17,346 25,418 11,18 18,32 22,44 5,16 -5,33 -21,38 -3,0 -6,1 -8,1zm-1575 -999l0 0c-36,0 -64,-19 -81,-54 -35,-76 -5,-209 44,-260 31,-33 72,-42 112,-24 48,21 80,78 76,134 -6,79 -15,197 -146,204 -2,0 -4,0 -5,0zm35 -286l0 0c-10,0 -19,5 -28,14 0,0 0,0 0,0 -33,35 -56,142 -32,192 8,18 17,20 27,19 66,-4 80,-46 88,-147 3,-34 -18,-65 -40,-75 -5,-2 -10,-3 -15,-3zm-50 -7l0 0 0 0 0 0z"/>
   <path class="fil2" d="M204 1769c-11,0 -21,-5 -26,-15 -9,-14 -4,-33 10,-42 50,-29 88,-117 102,-171 1,-32 -18,-58 -37,-67 -15,-6 -30,-3 -44,10 -52,81 -79,169 -57,187 13,10 16,29 5,43 -10,13 -29,15 -42,5 -84,-65 23,-237 45,-271 1,-1 2,-2 3,-4 32,-33 75,-43 114,-25 48,20 78,74 73,129 0,2 0,4 0,6 -2,6 -42,158 -131,211 -5,3 -10,4 -15,4z"/>
   <path class="fil2" d="M881 2106c-33,0 -94,-30 -95,-31 -30,-16 -15,-50 -10,-61l2 -5c9,-24 20,-30 27,-33 25,-10 102,31 102,31 6,3 19,11 22,27 2,14 -11,62 -37,71 -3,1 -7,1 -11,1zm-1 -60l0 0c0,0 0,0 0,0 0,0 0,0 0,0zm-12 -8l0 0 0 0 0 0zm-201 -13l0 0c-33,0 -94,-30 -95,-31 -30,-16 -15,-50 -10,-61l2 -5c9,-24 20,-30 27,-33 25,-10 102,30 103,31 5,3 19,11 21,27 2,16 -12,63 -37,71 -3,1 -7,1 -11,1zm-1 -60l0 0 -65 -25 0 0c0,0 0,0 0,0 0,0 0,0 0,0l65 25zm384 53l0 0c-4,0 -7,0 -11,-2 -164,-63 -631,-251 -675,-269 -16,-7 -23,-25 -16,-40 6,-16 24,-23 39,-16 44,18 510,205 674,268 16,7 23,24 17,40 -4,12 -16,19 -28,19zm-587 -83l0 0c-33,0 -94,-31 -95,-31 -30,-17 -15,-50 -10,-62l3 -5c8,-23 19,-30 26,-33 25,-10 102,31 103,31 5,3 19,11 21,28 2,16 -12,62 -37,70 -3,1 -7,2 -11,2zm0 -61l0 0 0 0 0 0zm-66 -24l0 0c0,0 0,0 0,0 0,0 0,0 0,0zm642 -164l0 0c-3,0 -7,-1 -9,-1 -77,-14 -428,-161 -468,-200l-1 0c-28,-31 -29,-71 -1,-106 17,-21 41,-77 54,-108 12,-29 15,-35 22,-41 42,-40 85,-27 108,-14 16,7 33,15 51,23 37,17 84,38 99,42 16,4 26,21 22,37 -4,16 -20,26 -36,22 -20,-5 -55,-21 -110,-46 -18,-8 -36,-16 -51,-23 -1,0 -2,-1 -3,-1 -21,-12 -30,-4 -37,3 -2,5 -6,14 -9,22 -21,48 -42,97 -62,122 -11,14 -8,20 -2,26 32,24 344,164 433,182 17,-10 46,-87 46,-135 0,-17 13,-30 30,-30 17,0 31,13 31,30 -1,44 -24,144 -67,181 -15,11 -29,15 -40,15zm-432 -241l0 0c1,1 1,1 2,2 -1,-1 -1,-2 -2,-2zm-2 -2l0 0c0,0 0,0 0,0 0,0 0,0 0,0zm70 -166l0 0c-1,1 -2,1 -2,2 1,-1 1,-1 2,-2zm-344 239l0 0c-11,0 -22,-7 -27,-17 -7,-15 -1,-34 14,-41 50,-25 69,-105 71,-153 2,-29 -10,-53 -31,-65 -11,-6 -32,-13 -57,7 -51,39 -50,150 -43,172 4,16 -5,33 -21,38 -16,4 -33,-5 -38,-21 -9,-33 -16,-175 65,-238 34,-26 76,-32 113,-16l35 -75c-65,-23 -138,-58 -162,-116 -13,-30 -10,-63 7,-95 24,-46 67,-72 123,-73 71,-2 159,37 174,62 9,15 4,33 -11,42 -13,8 -30,5 -39,-7 -13,-11 -83,-44 -139,-35 -25,5 -43,18 -54,39 -12,22 -8,35 -5,44 14,33 66,64 156,91l5 2c17,5 26,22 21,38 -3,7 -8,13 -14,17 0,1 0,2 -1,4l-47 101c18,24 26,55 24,87 -2,56 -26,165 -105,204 -4,2 -9,4 -14,4zm174 -595l0 0 -3 -4c0,0 0,0 0,0 0,0 0,0 0,0l3 4zm298 586l0 0c-4,0 -9,-1 -13,-3 -23,-11 -43,-20 -61,-27 -21,-9 -40,-17 -56,-26 -15,-8 -21,-26 -13,-41 8,-15 27,-21 42,-13 14,8 31,15 51,24 18,7 39,16 63,28 15,7 22,25 15,40 -6,11 -17,18 -28,18zm203 -9l0 0c-5,0 -10,-1 -15,-4 -24,-14 -78,-34 -131,-54 -65,-24 -132,-48 -167,-70 -15,-9 -19,-28 -10,-42 8,-14 27,-19 41,-10 31,19 98,43 157,65 58,21 112,41 141,58 14,9 19,27 11,42 -6,10 -16,15 -27,15zm274 -385l0 0c-122,0 -475,-160 -499,-172l15 -27 -15 27c-54,-29 -36,-67 -13,-115 7,-14 14,-30 23,-50 13,-37 40,-100 74,-114 46,-19 411,133 490,179 37,21 51,36 54,54 7,49 -46,197 -105,215 -6,2 -14,3 -24,3zm-472 -227l0 0c1,0 1,0 2,1 0,0 0,0 0,0 90,48 427,180 476,165 21,-10 62,-106 63,-143 -46,-41 -396,-178 -463,-188 -9,10 -26,44 -38,77 0,0 0,1 -1,2 -9,21 -17,38 -24,52 -6,13 -12,26 -15,34zm544 26l0 0 437 -228c-12,0 -23,-7 -28,-18 -1,-4 -2,-7 -3,-11 -3,-10 -9,-21 -18,-30 -7,-7 -9,-18 -7,-27 2,-10 9,-18 18,-22 12,-5 21,-19 20,-32 -2,-16 10,-31 27,-33 17,-2 32,10 33,27 1,5 1,11 1,17 0,1 1,2 1,2 12,19 24,35 37,47 10,10 12,26 5,38 -7,12 -22,17 -35,13 -7,-2 -15,-4 -20,-3 1,14 -8,27 -22,31 -3,1 -6,1 -9,1l-437 228zm-602 -568l0 0c-14,0 -26,-9 -30,-23 -4,-15 -25,-51 -43,-78 -10,-14 -6,-33 8,-42 14,-10 33,-6 42,8 5,6 44,64 52,96 4,16 -5,33 -21,37 -3,1 -6,2 -8,2zm80 -23l0 0c-14,0 -26,-9 -30,-23 -20,-77 -7,-262 -7,-270 2,-17 16,-29 33,-28 17,1 29,16 28,33 -5,73 -8,199 5,249 5,17 -5,33 -21,38 -3,0 -6,1 -8,1z"/>
  </g>
 </g>
</svg>
